<?xml version="1.0" standalone="no"?>
<!DOCTYPE svg PUBLIC "-//W3C//DTD SVG 20010904//EN"
 "http://www.w3.org/TR/2001/REC-SVG-20010904/DTD/svg10.dtd">
<svg version="1.0" xmlns="http://www.w3.org/2000/svg"
 width="150.000000pt" height="148.000000pt" viewBox="0 0 150.000000 148.000000"
 preserveAspectRatio="xMidYMid meet">

<g transform="translate(0.000000,148.000000) scale(0.100000,-0.100000)"
fill="#000000" stroke="none">
<path d="M308 1333 c-36 -9 -17 -21 40 -25 66 -5 103 -27 127 -76 26 -54 4
-69 -41 -27 -55 51 -136 53 -204 5 -45 -32 -36 -41 19 -18 60 26 107 19 144
-20 27 -28 27 -29 11 -68 -20 -46 -22 -157 -4 -179 8 -10 22 -12 43 -8 118 23
200 111 183 196 -7 34 -42 77 -63 77 -7 0 -20 17 -28 37 -20 48 -41 71 -87 94
-35 18 -98 23 -140 12z m278 -235 c8 -26 -31 -68 -63 -68 -32 0 -31 43 1 75
27 27 52 25 62 -7z"/>
<path d="M810 1064 c-75 -20 -174 -67 -222 -106 -36 -28 -84 -105 -73 -116 2
-3 46 16 97 41 113 55 222 88 294 90 102 2 98 -38 -7 -89 -81 -40 -121 -50
-113 -29 5 11 -1 15 -18 15 -32 0 -149 -40 -215 -74 -50 -25 -53 -28 -53 -66
l0 -39 48 21 c154 68 352 78 352 18 0 -25 -87 -60 -149 -60 -43 0 -49 3 -44
17 6 14 1 15 -37 9 -24 -4 -73 -17 -109 -29 -63 -22 -67 -25 -81 -67 -8 -25
-19 -51 -24 -58 -4 -7 -6 -15 -3 -18 10 -10 92 16 139 45 44 28 58 31 126 31
43 0 102 6 132 14 30 8 55 14 56 13 0 -1 -57 -57 -127 -125 l-126 -122 -123
55 c-71 32 -127 52 -132 47 -5 -5 24 -40 69 -83 43 -41 113 -108 155 -148 42
-40 81 -72 86 -70 6 2 41 51 79 109 136 206 305 392 486 534 48 38 87 73 87
78 0 28 -117 -30 -254 -125 -74 -52 -76 -53 -76 -33 0 17 -56 66 -76 66 -26 0
-14 15 28 34 23 11 64 41 90 66 44 43 49 52 46 85 -5 62 -39 80 -156 82 -62 2
-117 -3 -152 -13z"/>
</g>
</svg>
